<svg xmlns="http://www.w3.org/2000/svg" width="24" height="24" viewBox="0 0 24 24">
    <g fill="none" fill-rule="evenodd">
        <path fill="#4285F4" d="M23.358 12.188c0-.845-.076-1.657-.217-2.438H11.917v4.61h6.414a5.482 5.482 0 0 1-2.378 3.597v2.99h3.851c2.254-2.074 3.554-5.13 3.554-8.759z"/>
        <path fill="#34A853" d="M11.917 23.834c3.218 0 5.916-1.067 7.887-2.887l-3.851-2.99c-1.067.715-2.432 1.138-4.036 1.138-3.104 0-5.73-2.097-6.668-4.913H1.268v3.087a11.913 11.913 0 0 0 10.65 6.565z"/>
        <path fill="#FBBC05" d="M5.249 14.182a7.164 7.164 0 0 1-.374-2.265c0-.785.136-1.549.374-2.264V6.565H1.268A11.913 11.913 0 0 0 0 11.917c0 1.923.46 3.743 1.268 5.352l3.981-3.087z"/>
        <path fill="#EA4335" d="M11.917 4.74c1.75 0 3.32.601 4.556 1.782l3.418-3.418C17.827 1.18 15.129 0 11.917 0 7.26 0 3.228 2.67 1.267 6.565L5.25 9.653c.937-2.817 3.564-4.913 6.668-4.913z"/>
        <path d="M0 0h24v24H0z"/>
    </g>
</svg>
