<?xml version="1.0" encoding="utf-8"?>
<!-- Generator: Adobe Illustrator 24.0.0, SVG Export Plug-In . SVG Version: 6.00 Build 0)  -->
<svg version="1.1" id="Layer_1" xmlns="http://www.w3.org/2000/svg" xmlns:xlink="http://www.w3.org/1999/xlink" x="0px" y="0px"
	 viewBox="0 0 833 833" style="enable-background:new 0 0 833 833;" xml:space="preserve">
<style type="text/css">
	.st0{fill:#C01823;}
	.st1{fill:#009245;}
</style>
<g>
	<path class="st0" d="M410.6,732.5c4.2-1.4,8-1.2,12,0.2c14.9,5.2,30.3,7.5,46.1,6.9c23.1-0.9,44.1-8.3,64-19.5
		c22.7-12.8,41.5-30.3,58.3-50.1c47.1-55.3,76.2-119.4,91.9-189.8c7.4-33.4,7.6-67-1.2-100.4c-24.2-91.7-106.8-129.4-182.5-114.3
		c-27.9,5.6-52.6,17.5-74.1,36.1c-1.7,1.5-3.2,4-6.4,3.6c-0.4-14.1-3.1-27.6-8.9-40.3c-18.4-40.5-50.7-66.1-90.6-83.5
		c-3.3-1.4-6.8-1.9-10,0c-7.5,4.2-14,9.7-18.9,16.8c-3.8,5.6-2.7,11.5,2.3,16.1c2.6,2.4,5.7,3.9,8.8,5.3c8.8,4,17.7,7.7,26.4,11.8
		c29.8,13.8,52.4,35.3,68.3,63.9c1,1.7,2.4,3.3,2.2,5.5c-1.5,0.1-2.1-0.9-2.9-1.6c-47.5-40.7-100.4-47-157.7-24.4
		c-57.5,28.7-87.8,75.6-92.4,139.3c-1.8,24.7,0.8,49.2,6.1,73.3c14,63.2,42.1,119.9,80.9,171.3c17.9,23.7,39.3,43.7,64.7,59.4
		C332.6,740.1,370.4,746,410.6,732.5z M245.1,481.4c-4.3-21.6-5.5-43.5,0.8-64.9c11.3-38.4,35.9-63.6,75.4-72.7
		c21.6-5,42.5-1.5,62.4,8.1c10.9,5.3,19.5,13,24.5,24.2c0.7,1.5,1.3,3,2.8,4.1c0.7-0.2,1-0.2,1.1-0.4c11.9-20.1,31.4-29.1,52.6-34.8
		c41.3-10.9,84,4.8,107.1,38.7c11.5,16.9,17.4,35.9,18.9,56.2c1.7,22.8-2.6,44.8-9.5,66.5c-12.6,39.8-31.7,75.8-60.7,106.2
		c-11.7,12.3-25,22.3-40.7,29c-18.7,7.9-37.8,9.3-57.2,3.1c-4.1-1.3-7.9-1.4-12.1-0.1c-23,7.1-45,4.4-65.9-7.2
		c-17.8-9.8-32.7-23.2-45-39.1C272.7,563.6,253.6,524.9,245.1,481.4z"/>
	<path class="st1" d="M454.3,242.3c2.5,0,5-0.3,7.5-0.7c12.2-2.2,22.2-8.3,30.8-17.1c14-14.4,23.6-31.6,30.5-50.3
		c6.3-17.1,10.3-34.8,13.8-52.6c1.8-9,3.9-17.9,5-28.3c-32.9,10.1-63.6,22.1-87.6,46.5c-8.5,8.6-15.3,18.4-20.2,29.4
		c-7.7,17.4-9.5,35.4-4.8,53.9C432.4,235.6,441.2,242.3,454.3,242.3z"/>
</g>
</svg>
